<svg xmlns="http://www.w3.org/2000/svg" xmlns:xlink="http://www.w3.org/1999/xlink" viewBox="0 0 39 8.92"><defs><style>.cls-1{filter:url(#luminosity-noclip);}.cls-2{fill:#fff;}.cls-3{mask:url(#mask);}.cls-4{fill:#feb542;}</style><filter id="luminosity-noclip" x="13.71" y="0.89" width="2.07" height="8.02" filterUnits="userSpaceOnUse" color-interpolation-filters="sRGB"><feFlood flood-color="#fff" result="bg"/><feBlend in="SourceGraphic" in2="bg"/></filter><mask id="mask" x="13.71" y="0.89" width="2.07" height="8.02" maskUnits="userSpaceOnUse"><path class="cls-1" d="M15.68,6.21V2.88a.85.85,0,0,0-.16-.5.9.9,0,0,0-.41-.31L15,2V1.24H14.9v.85l.18.07a.83.83,0,0,1,.37.27.77.77,0,0,1,.14.45V6.21Z"/></mask></defs><g id="Layer_2" data-name="Layer 2"><g id="Layer_1-2" data-name="Layer 1"><path class="cls-2" d="M2.34,1.6A1.18,1.18,0,0,1,3.66,2.91v1A.13.13,0,0,1,3.51,4H2.56c-.09,0-.14-.05-.14-.15V3.17a.33.33,0,0,0-.37-.37H1.61a.34.34,0,0,0-.37.37V4.43l2.18.72a.33.33,0,0,1,.24.34V7.6A1.18,1.18,0,0,1,2.34,8.92h-1A1.19,1.19,0,0,1,0,7.6v-1a.13.13,0,0,1,.15-.15h1c.1,0,.14,0,.14.15v.7a.33.33,0,0,0,.37.37h.44a.33.33,0,0,0,.37-.37V6.13L.25,5.41A.32.32,0,0,1,0,5.07V2.91A1.18,1.18,0,0,1,1.32,1.6Z"/><path class="cls-2" d="M4.57,1.74a.13.13,0,0,1,.15-.14h2.2A1.17,1.17,0,0,1,8.23,2.91V5.15A1.17,1.17,0,0,1,6.92,6.46H5.82V8.77a.14.14,0,0,1-.15.15h-1a.14.14,0,0,1-.15-.15ZM6.62,5.26A.33.33,0,0,0,7,4.89V3.17a.33.33,0,0,0-.37-.37h-.8V5.26Z"/><path class="cls-2" d="M12.82,5.15a1.17,1.17,0,0,1-.67,1.2l.63,2.4a.12.12,0,0,1-.13.17h-1a.14.14,0,0,1-.15-.13l-.62-2.33H10.3V8.77a.13.13,0,0,1-.14.15h-1a.13.13,0,0,1-.14-.15v-7A.13.13,0,0,1,9.2,1.6h2.3a1.18,1.18,0,0,1,1.32,1.31Zm-1.61.11a.33.33,0,0,0,.36-.37V3.17a.33.33,0,0,0-.36-.37H10.3V5.26Z"/><path class="cls-2" d="M20,1.6c.1,0,.15,0,.15.14v.92c0,.09-.05.14-.15.14H18.92v6c0,.1,0,.15-.14.15h-1c-.09,0-.14-.05-.14-.15v-6H16.62a.13.13,0,0,1-.15-.14V1.74a.13.13,0,0,1,.15-.14Z"/><path class="cls-2" d="M23.28,1.74a.12.12,0,0,1,.14-.14h1a.13.13,0,0,1,.14.14V7.6A1.19,1.19,0,0,1,23.2,8.92h-1A1.18,1.18,0,0,1,20.86,7.6V6.65A.14.14,0,0,1,21,6.5h.91a.14.14,0,0,1,.15.15v.69a.33.33,0,0,0,.37.37h.47a.33.33,0,0,0,.37-.37Z"/><path class="cls-2" d="M28.69,8.92c-.08,0-.12-.05-.14-.13l-.26-1.34H26.66l-.24,1.34a.15.15,0,0,1-.15.13h-1c-.1,0-.15-.06-.12-.16l1.52-7a.14.14,0,0,1,.16-.13h1.27a.14.14,0,0,1,.15.13l1.52,7c0,.1,0,.16-.13.16ZM27.48,3.2l-.59,3.19h1.17Z"/><path class="cls-2" d="M33.56,8.92a.21.21,0,0,1-.21-.14L32.2,6.06l-.34.65v2a.17.17,0,0,1-.18.19H30.8a.17.17,0,0,1-.18-.19V1.78a.16.16,0,0,1,.18-.18h.88a.16.16,0,0,1,.18.18V4.62l1.41-2.89a.21.21,0,0,1,.21-.13h1c.14,0,.19.09.13.22L33,5l1.66,3.7c.06.11,0,.21-.14.21Z"/><path class="cls-2" d="M38.85,1.6c.1,0,.15,0,.15.14v.92c0,.09,0,.14-.15.14H37.79v6a.13.13,0,0,1-.15.15h-1a.14.14,0,0,1-.15-.15v-6H35.48a.13.13,0,0,1-.14-.14V1.74a.13.13,0,0,1,.14-.14Z"/><path class="cls-2" d="M15.1.68V.18A.18.18,0,0,0,14.92,0h-.34a.17.17,0,0,0-.17.18v.5Z"/><g class="cls-3"><path class="cls-4" d="M15.79,2.92V8.75a.18.18,0,0,1-.17.17H13.88a.18.18,0,0,1-.17-.17V2.92a1,1,0,0,1,.7-1v-1h.69v1A1,1,0,0,1,15.79,2.92Z"/></g></g></g></svg>