<svg xmlns="http://www.w3.org/2000/svg" xmlns:xlink="http://www.w3.org/1999/xlink" viewBox="0 0 22 22.08" > <defs > <style > .cls-1 {
    filter:url(#luminosity-noclip);
}

.cls-2 {
    fill: #feb542;
}

.cls-3 {
    fill: #1c323a;
}

.cls-4 {
    mask: url('#mask');
}
</style><filter id="luminosity-noclip" x="5.37" y="5.27" width="11.25" height="26.03" filterUnits="userSpaceOnUse" color-interpolation-filters="sRGB"><feFlood flood-color="#fff" result="bg"/><feBlend in="SourceGraphic" in2="bg"/></filter><mask id="mask" x="5.37" y="5.27" width="11.25" height="26.03" maskUnits="userSpaceOnUse"><path class="cls-1" d="M16,31.31V15a3.89,3.89,0,0,0-.87-2.44,4.68,4.68,0,0,0-2.23-1.51l-.66-.21V7h-.49v4.17l1,.32a4.1,4.1,0,0,1,2,1.35A3.5,3.5,0,0,1,15.55,15V31.31Z"/></mask></defs><g id="Layer_2" data-name="Layer 2"><g id="Layer_1-2" data-name="Layer 1"><path class="cls-2" d="M22,11a11.31,11.31,0,0,1-5.38,9.46A11.11,11.11,0,0,1,11,22a11,11,0,0,1-5.66-1.57A11.13,11.13,0,0,1,0,11C.07,5.58,4.61,0,11,0A11,11,0,0,1,22,11Z"/><path class="cls-3" d="M12.92,3.91V1.43a.92.92,0,0,0-1-.87H10.13a.92.92,0,0,0-1,.87V3.91Z"/><g class="cls-4"><path class="cls-3" d="M16.63,20.45a10.58,10.58,0,0,1-11.26,0h0V15.21a5.15,5.15,0,0,1,3.76-4.8V5.27h3.74v5.14a5.16,5.16,0,0,1,3.76,4.8"/></g></g></g></svg>
